<?xml version="1.0" encoding="UTF-8" standalone="no"?>
<svg
   xmlns:dc="http://purl.org/dc/elements/1.1/"
   xmlns:cc="http://creativecommons.org/ns#"
   xmlns:rdf="http://www.w3.org/1999/02/22-rdf-syntax-ns#"
   xmlns:svg="http://www.w3.org/2000/svg"
   xmlns="http://www.w3.org/2000/svg"
   viewBox="0 0 661.793 220.1889"
   height="220.1889"
   width="661.79303"
   xml:space="preserve"
   id="svg10"
   version="1.1">
  <metadata
     id="metadata16">
    <rdf:RDF>
      <cc:Work
         rdf:about="">
        <dc:format>image/svg+xml</dc:format>
        <dc:type
           rdf:resource="http://purl.org/dc/dcmitype/StillImage" />
        <dc:title></dc:title>
      </cc:Work>
    </rdf:RDF>
  </metadata>
  <defs
     id="defs14">
    <clipPath
       id="clipPath28"
       clipPathUnits="userSpaceOnUse">
      <path
         id="path26"
         d="M 0,0 H 800 V 400 H 0 Z" />
    </clipPath>
    <clipPath
       id="clipPath44"
       clipPathUnits="userSpaceOnUse">
      <path
         id="path42"
         d="m 93.15737,159.995 h 80.35193 v 80.00998 H 93.15737 Z" />
    </clipPath>
    <clipPath
       id="clipPath58"
       clipPathUnits="userSpaceOnUse">
      <path
         id="path56"
         d="M 0,0 H 800 V 400 H 0 Z" />
    </clipPath>
    <clipPath
       id="clipPath98"
       clipPathUnits="userSpaceOnUse">
      <path
         id="path96"
         d="m 226.4907,159.995 h 80.35193 v 80.00998 H 226.4907 Z" />
    </clipPath>
    <clipPath
       id="clipPath112"
       clipPathUnits="userSpaceOnUse">
      <path
         id="path110"
         d="M 0,0 H 800 V 400 H 0 Z" />
    </clipPath>
    <clipPath
       id="clipPath126"
       clipPathUnits="userSpaceOnUse">
      <path
         id="path124"
         d="m 359.824,159.995 h 80.35193 v 80.00998 H 359.824 Z" />
    </clipPath>
    <clipPath
       id="clipPath146"
       clipPathUnits="userSpaceOnUse">
      <path
         id="path144"
         d="M 0,0 H 800 V 400 H 0 Z" />
    </clipPath>
    <clipPath
       id="clipPath160"
       clipPathUnits="userSpaceOnUse">
      <path
         id="path158"
         d="m 493.1574,159.995 h 80.35193 v 80.00998 H 493.1574 Z" />
    </clipPath>
    <clipPath
       id="clipPath174"
       clipPathUnits="userSpaceOnUse">
      <path
         id="path172"
         d="M 0,0 H 800 V 400 H 0 Z" />
    </clipPath>
  </defs>
  <g
     transform="matrix(1.3333333,0,0,-1.3333333,-122.88608,344.77024)"
     id="g18">
    <g
       id="g20" />
    <g
       id="g22" />
    <g
       transform="translate(7.0036058,-8.1159375)"
       id="g393">
      <g
         id="g24"
         clip-path="url(#clipPath28)">
        <path
           d="m 161.742,228.2878 c 15.6897,-15.6229 15.6897,-40.9527 0,-56.5756 -15.6897,-15.6229 -41.1277,-15.6229 -56.8174,0 -15.68965,15.6229 -15.68965,40.9527 0,56.5756 15.6897,15.6229 41.1277,15.6229 56.8174,0 z"
           style="fill:#d8f1ff;fill-opacity:1;fill-rule:nonzero;stroke:none"
           id="path32" />
        <g
           id="g34"
           transform="matrix(1,0,0,-1,93.15737,240.005)">
          <path
             d="m 68.58466,11.71719 c 15.68969,15.62292 15.68969,40.95268 0,56.5756 -15.68969,15.62292 -41.1277,15.62292 -56.81739,0 -15.689693,-15.62292 -15.689693,-40.95268 0,-56.5756 15.68969,-15.62292 41.1277,-15.62292 56.81739,0 z"
             style="fill:none;stroke:#0076ba;stroke-width:2;stroke-linecap:butt;stroke-linejoin:miter;stroke-miterlimit:4;stroke-dasharray:none;stroke-opacity:1"
             id="path36" />
        </g>
      </g>
      <g
         id="g38">
        <g
           id="g40"
           clip-path="url(#clipPath44)">
          <g
             id="g46"
             transform="translate(115.1792,196.3212)">
            <text
               transform="scale(1,-1)"
               style="font-variant:normal;font-weight:normal;font-size:10px;font-family:Avenir;-inkscape-font-specification:Avenir-Book;writing-mode:lr-tb;fill:#004d80;fill-opacity:1;fill-rule:nonzero;stroke:none"
               id="text50"><tspan
                 x="0 5.5599999 11.12 14.44 19.26 21.66 26.48 32.040001"
                 y="0"
                 id="tspan48">Services</tspan></text>
          </g>
        </g>
      </g>
      <g
         id="g52">
        <g
           id="g54"
           clip-path="url(#clipPath58)">
          <g
             id="g60"
             transform="matrix(1,0,0,-1,174.5011,200)">
            <path
               d="M 50.98959,0 C 35.99306,0 20.99653,0 6,0 H 5.5"
               style="fill:none;stroke:#007cbb;stroke-width:1;stroke-linecap:butt;stroke-linejoin:miter;stroke-miterlimit:4;stroke-dasharray:2, 2;stroke-dashoffset:0;stroke-opacity:1"
               id="path62" />
          </g>
          <path
             d="m 180.5011,203 -6,-3 6,-3 z"
             style="fill:#007cbb;fill-opacity:1;fill-rule:nonzero;stroke:none"
             id="path64" />
          <g
             id="g66"
             transform="matrix(1,0,0,-1,169.0131,225.6485)">
            <path
               d="m 0,5.170058 c 18.32743,-6.446214 36.96558,-6.8644 55.91446,-1.254557 l 0.4764,0.155965"
               style="fill:none;stroke:#007cbb;stroke-width:1;stroke-linecap:butt;stroke-linejoin:miter;stroke-miterlimit:4;stroke-dasharray:none;stroke-opacity:1"
               id="path68" />
          </g>
          <path
             d="m 223.9954,218.8815 6.6356,0.9843 -4.7688,4.7179 z"
             style="fill:#007cbb;fill-opacity:1;fill-rule:nonzero;stroke:none"
             id="path70" />
          <g
             id="g72"
             transform="translate(109.8253,133.294)">
            <text
               transform="scale(1,-1)"
               style="font-variant:normal;font-weight:500;font-size:9px;font-family:Avenir;-inkscape-font-specification:Avenir-Medium;writing-mode:lr-tb;fill:#000000;fill-opacity:1;fill-rule:nonzero;stroke:none"
               id="text76"><tspan
                 x="0 6.336 11.835 16.506001 21.51 26.514 30.51 34.506001 36.666 42.012001"
                 y="0"
                 id="tspan74">URLSession</tspan></text>
          </g>
          <g
             id="g78"
             transform="translate(109.8253,133.294)" />
          <g
             id="g80"
             transform="translate(107.0848,121.294)">
            <text
               transform="scale(1,-1)"
               style="font-variant:normal;font-weight:500;font-size:9px;font-family:Avenir;-inkscape-font-specification:Avenir-Medium;writing-mode:lr-tb;fill:#000000;fill-opacity:1;fill-rule:nonzero;stroke:none"
               id="text84"><tspan
                 x="0 6.336 10.332 15.336 18.666 25.334999 30.339001 33.335999 38.007 43.011002 45.171001 48.500999"
                 y="0"
                 id="tspan82">UserDefaults</tspan></text>
          </g>
          <path
             d="m 295.0754,228.2878 c 15.6897,-15.6229 15.6897,-40.9527 0,-56.5756 -15.6897,-15.6229 -41.1277,-15.6229 -56.8174,0 -15.6897,15.6229 -15.6897,40.9527 0,56.5756 15.6897,15.6229 41.1277,15.6229 56.8174,0 z"
             style="fill:#d8f1ff;fill-opacity:1;fill-rule:nonzero;stroke:none"
             id="path86" />
          <g
             id="g88"
             transform="matrix(1,0,0,-1,226.4907,240.005)">
            <path
               d="m 68.58466,11.71719 c 15.68969,15.62292 15.68969,40.95268 0,56.5756 -15.68969,15.62292 -41.1277,15.62292 -56.81739,0 -15.689693,-15.62292 -15.689693,-40.95268 0,-56.5756 15.68969,-15.62292 41.1277,-15.62292 56.81739,0 z"
               style="fill:none;stroke:#0076ba;stroke-width:2;stroke-linecap:butt;stroke-linejoin:miter;stroke-miterlimit:4;stroke-dasharray:none;stroke-opacity:1"
               id="path90" />
          </g>
        </g>
      </g>
      <g
         id="g92">
        <g
           id="g94"
           clip-path="url(#clipPath98)">
          <g
             id="g100"
             transform="translate(252.2126,196.5868)">
            <text
               transform="scale(1,-1)"
               style="font-variant:normal;font-weight:normal;font-size:10px;font-family:Avenir;-inkscape-font-specification:Avenir-Book;writing-mode:lr-tb;fill:#004d80;fill-opacity:1;fill-rule:nonzero;stroke:none"
               id="text104"><tspan
                 x="0 8.8999996 14.83 20.940001 26.5"
                 y="0"
                 id="tspan102">Model</tspan></text>
          </g>
        </g>
      </g>
      <g
         id="g106">
        <g
           id="g108"
           clip-path="url(#clipPath112)">
          <path
             d="m 428.4087,228.2878 c 15.6897,-15.6229 15.6897,-40.9527 0,-56.5756 -15.6897,-15.6229 -41.1277,-15.6229 -56.8174,0 -15.6897,15.6229 -15.6897,40.9527 0,56.5756 15.6897,15.6229 41.1277,15.6229 56.8174,0 z"
             style="fill:#d8f1ff;fill-opacity:1;fill-rule:nonzero;stroke:none"
             id="path114" />
          <g
             id="g116"
             transform="matrix(1,0,0,-1,359.824,240.005)">
            <path
               d="m 68.58466,11.71719 c 15.68969,15.62292 15.68969,40.95268 0,56.5756 -15.68969,15.62292 -41.1277,15.62292 -56.81739,0 -15.689693,-15.62292 -15.689693,-40.95268 0,-56.5756 15.68969,-15.62292 41.1277,-15.62292 56.81739,0 z"
               style="fill:none;stroke:#0076ba;stroke-width:2;stroke-linecap:butt;stroke-linejoin:miter;stroke-miterlimit:4;stroke-dasharray:none;stroke-opacity:1"
               id="path118" />
          </g>
        </g>
      </g>
      <g
         id="g120">
        <g
           id="g122"
           clip-path="url(#clipPath126)">
          <g
             id="g128"
             transform="translate(375.8459,203.2275)">
            <text
               transform="scale(1,-1)"
               style="font-variant:normal;font-weight:normal;font-size:10px;font-family:Avenir;-inkscape-font-specification:Avenir-Book;writing-mode:lr-tb;fill:#004d80;fill-opacity:1;fill-rule:nonzero;stroke:none"
               id="text132"><tspan
                 x="0 7.04 12.97 18.530001 21.85 24.99 30.92 33.32 35.720001 41.279999 44.599998"
                 y="0"
                 id="tspan130">Controller/</tspan></text>
          </g>
          <g
             id="g134"
             transform="translate(389.3209,189.2275)">
            <text
               transform="scale(1,-1)"
               style="font-variant:normal;font-weight:normal;font-size:10px;font-family:Avenir;-inkscape-font-specification:Avenir-Book;writing-mode:lr-tb;fill:#004d80;fill-opacity:1;fill-rule:nonzero;stroke:none"
               id="text138"><tspan
                 x="0 6.1700001 8.5699997 14.13"
                 y="0"
                 id="tspan136">View</tspan></text>
          </g>
        </g>
      </g>
      <g
         id="g140">
        <g
           id="g142"
           clip-path="url(#clipPath146)">
          <path
             d="m 561.742,228.2878 c 15.6897,-15.6229 15.6897,-40.9527 0,-56.5756 -15.6896,-15.6229 -41.1277,-15.6229 -56.8174,0 -15.6896,15.6229 -15.6896,40.9527 0,56.5756 15.6897,15.6229 41.1278,15.6229 56.8174,0 z"
             style="fill:#d8f1ff;fill-opacity:1;fill-rule:nonzero;stroke:none"
             id="path148" />
          <g
             id="g150"
             transform="matrix(1,0,0,-1,493.1574,240.005)">
            <path
               d="m 68.58466,11.71719 c 15.68969,15.62292 15.68969,40.95268 0,56.5756 -15.68969,15.62292 -41.1277,15.62292 -56.81739,0 -15.689693,-15.62292 -15.689693,-40.95268 0,-56.5756 15.68969,-15.62292 41.1277,-15.62292 56.81739,0 z"
               style="fill:none;stroke:#0076ba;stroke-width:2;stroke-linecap:butt;stroke-linejoin:miter;stroke-miterlimit:4;stroke-dasharray:none;stroke-opacity:1"
               id="path152" />
          </g>
        </g>
      </g>
      <g
         id="g154">
        <g
           id="g156"
           clip-path="url(#clipPath160)">
          <g
             id="g162"
             transform="translate(522.6543,196.79)">
            <text
               transform="scale(1,-1)"
               style="font-variant:normal;font-weight:normal;font-size:10px;font-family:Avenir;-inkscape-font-specification:Avenir-Book;writing-mode:lr-tb;fill:#004d80;fill-opacity:1;fill-rule:nonzero;stroke:none"
               id="text166"><tspan
                 x="0 6.1700001 8.5699997 14.13"
                 y="0"
                 id="tspan164">View</tspan></text>
          </g>
        </g>
      </g>
      <g
         id="g168">
        <g
           id="g170"
           clip-path="url(#clipPath174)">
          <g
             id="g176"
             transform="matrix(1,0,0,-1,307.8345,200)">
            <path
               d="M 50.98958,0 C 35.99305,0 20.99653,0 6,0 H 5.5"
               style="fill:none;stroke:#007cbb;stroke-width:1;stroke-linecap:butt;stroke-linejoin:miter;stroke-miterlimit:4;stroke-dasharray:none;stroke-opacity:1"
               id="path178" />
          </g>
          <path
             d="m 313.8345,203 -6,-3 6,-3 z"
             style="fill:#007cbb;fill-opacity:1;fill-rule:nonzero;stroke:none"
             id="path180" />
          <g
             id="g182"
             transform="matrix(1,0,0,-1,441.1678,200)">
            <path
               d="m 45.48959,0 h -0.5 C 29.99306,0 14.99653,0 0,0"
               style="fill:none;stroke:#007cbb;stroke-width:1;stroke-linecap:butt;stroke-linejoin:miter;stroke-miterlimit:4;stroke-dasharray:none;stroke-opacity:1"
               id="path184" />
          </g>
          <path
             d="m 486.1574,197 6,3 -6,3 z"
             style="fill:#007cbb;fill-opacity:1;fill-rule:nonzero;stroke:none"
             id="path186" />
          <g
             id="g188"
             transform="matrix(1,0,0,-1,302.1924,226.5721)">
            <path
               d="M 57.0958,4.013601 56.62214,3.853472 C 37.77359,-1.875299 18.89996,-1.216372 0,5.829826"
               style="fill:none;stroke:#007cbb;stroke-width:1;stroke-linecap:butt;stroke-linejoin:miter;stroke-miterlimit:4;stroke-dasharray:2, 2;stroke-dashoffset:0;stroke-opacity:1"
               id="path190" />
          </g>
          <path
             d="m 357.8537,219.8766 6.6448,0.9205 -4.7232,4.7635 z"
             style="fill:#007cbb;fill-opacity:1;fill-rule:nonzero;stroke:none"
             id="path192" />
          <g
             id="g194"
             transform="matrix(1,0,0,-1,428.9122,244.3125)">
            <path
               d="M 76.57342,14.09893 C 53.36973,-3.841275 29.47777,-4.660449 4.897537,11.64141 L 4.48869,11.9309"
               style="fill:none;stroke:#007cbb;stroke-width:1;stroke-linecap:butt;stroke-linejoin:miter;stroke-miterlimit:4;stroke-dasharray:2, 2;stroke-dashoffset:0;stroke-opacity:1"
               id="path196" />
          </g>
          <path
             d="m 432.0754,235.1189 -3.1632,-5.9156 6.6304,1.0189 z"
             style="fill:#007cbb;fill-opacity:1;fill-rule:nonzero;stroke:none"
             id="path198" />
          <g
             id="g200"
             transform="translate(253.5852,139.294)">
            <text
               transform="scale(1,-1)"
               style="font-variant:normal;font-weight:500;font-size:9px;font-family:Avenir;-inkscape-font-specification:Avenir-Medium;writing-mode:lr-tb;fill:#000000;fill-opacity:1;fill-rule:nonzero;stroke:none"
               id="text204"><tspan
                 x="0 8.1540003 13.5 18.999001 24.003"
                 y="0"
                 id="tspan202">Model</tspan></text>
          </g>
          <g
             id="g206"
             transform="translate(253.5852,139.294)" />
          <g
             id="g208"
             transform="translate(256.3302,127.294)">
            <text
               transform="scale(1,-1)"
               style="font-variant:normal;font-weight:500;font-size:9px;font-family:Avenir;-inkscape-font-specification:Avenir-Medium;writing-mode:lr-tb;fill:#000000;fill-opacity:1;fill-rule:nonzero;stroke:none"
               id="text212"><tspan
                 x="0 5.1659999 10.17 15.174"
                 y="0"
                 id="tspan210">Feed</tspan></text>
          </g>
          <g
             id="g214"
             transform="translate(256.3302,127.294)" />
          <g
             id="g216"
             transform="translate(253.3377,115.294)">
            <text
               transform="scale(1,-1)"
               style="font-variant:normal;font-weight:500;font-size:9px;font-family:Avenir;-inkscape-font-specification:Avenir-Medium;writing-mode:lr-tb;fill:#000000;fill-opacity:1;fill-rule:nonzero;stroke:none"
               id="text220"><tspan
                 x="0 6.336 9.6660004 12.996 15.156 19.493999 21.653999"
                 y="0"
                 id="tspan218">Article</tspan></text>
          </g>
          <g
             id="g222"
             transform="translate(358.8295,145.294)">
            <text
               transform="scale(1,-1)"
               style="font-variant:normal;font-weight:500;font-size:9px;font-family:Avenir;-inkscape-font-specification:Avenir-Medium;writing-mode:lr-tb;fill:#000000;fill-opacity:1;fill-rule:nonzero;stroke:none"
               id="text226"><tspan
                 x="0 6.336 13.167 15.327 20.493 25.497 30.500999 36 41.499001 46.502998 51.174 56.673 61.676998 65.007004 71.343002 76.842003"
                 y="0"
                 id="tspan224">CwlFeedReaderApp</tspan></text>
          </g>
          <g
             id="g228"
             transform="translate(358.8295,145.294)" />
          <g
             id="g230"
             transform="translate(373.5715,133.294)">
            <text
               transform="scale(1,-1)"
               style="font-variant:normal;font-weight:500;font-size:9px;font-family:Avenir;-inkscape-font-specification:Avenir-Medium;writing-mode:lr-tb;fill:#000000;fill-opacity:1;fill-rule:nonzero;stroke:none"
               id="text234"><tspan
                 x="0 6.336 11.682 16.686001 20.016001 25.02 30.024 33.354 38.862 41.021999 46.026001"
                 y="0"
                 id="tspan232">ContentView</tspan></text>
          </g>
          <g
             id="g236"
             transform="translate(373.5715,133.294)" />
          <g
             id="g238"
             transform="translate(376.2535,121.294)">
            <text
               transform="scale(1,-1)"
               style="font-variant:normal;font-weight:500;font-size:9px;font-family:Avenir;-inkscape-font-specification:Avenir-Medium;writing-mode:lr-tb;fill:#000000;fill-opacity:1;fill-rule:nonzero;stroke:none"
               id="text242"><tspan
                 x="0 6.6690001 11.673 15.003 19.674 21.834 23.993999 27.99 33.498001 35.658001 40.661999"
                 y="0"
                 id="tspan240">DetailsView</tspan></text>
          </g>
          <g
             id="g244"
             transform="translate(376.2535,121.294)" />
          <g
             id="g246"
             transform="translate(383.17,109.294)">
            <text
               transform="scale(1,-1)"
               style="font-variant:normal;font-weight:500;font-size:9px;font-family:Avenir;-inkscape-font-specification:Avenir-Medium;writing-mode:lr-tb;fill:#000000;fill-opacity:1;fill-rule:nonzero;stroke:none"
               id="text250"><tspan
                 x="0 4.671 6.8309999 10.827 14.157 19.665001 21.825001 26.829"
                 y="0"
                 id="tspan248">ListView</tspan></text>
          </g>
          <g
             id="g252"
             transform="translate(514.2129,139.294)">
            <text
               transform="scale(1,-1)"
               style="font-variant:normal;font-weight:500;font-size:9px;font-family:Avenir;-inkscape-font-specification:Avenir-Medium;writing-mode:lr-tb;fill:#000000;fill-opacity:1;fill-rule:nonzero;stroke:none"
               id="text256"><tspan
                 x="0 8.2349997 13.239 18.738001 24.246 26.406 31.41"
                 y="0"
                 id="tspan254">WebView</tspan></text>
          </g>
          <g
             id="g258"
             transform="translate(514.2129,139.294)" />
          <g
             id="g260"
             transform="translate(524.7474,127.294)">
            <text
               transform="scale(1,-1)"
               style="font-variant:normal;font-weight:500;font-size:9px;font-family:Avenir;-inkscape-font-specification:Avenir-Medium;writing-mode:lr-tb;fill:#000000;fill-opacity:1;fill-rule:nonzero;stroke:none"
               id="text264"><tspan
                 x="0 4.1669998 9.1709995 13.842"
                 y="0"
                 id="tspan262">Text</tspan></text>
          </g>
          <g
             id="g266"
             transform="translate(524.7474,127.294)" />
          <g
             id="g268"
             transform="translate(519.4914,115.294)">
            <text
               transform="scale(1,-1)"
               style="font-variant:normal;font-weight:500;font-size:9px;font-family:Avenir;-inkscape-font-specification:Avenir-Medium;writing-mode:lr-tb;fill:#000000;fill-opacity:1;fill-rule:nonzero;stroke:none"
               id="text272"><tspan
                 x="0 5.6700001 10.674 14.004 17.334 22.68"
                 y="0"
                 id="tspan270">Button</tspan></text>
          </g>
          <g
             id="g274"
             transform="matrix(1,0,0,-1,165.5699,258.578)">
            <path
               d="m 4.593376,30.03887 0.417579,-0.275 C 68.99738,-11.24154 134.5151,-9.876554 201.5674,33.85656"
               style="fill:none;stroke:#007cbb;stroke-width:1;stroke-linecap:butt;stroke-linejoin:miter;stroke-miterlimit:4;stroke-dasharray:none;stroke-opacity:1"
               id="path276" />
          </g>
          <path
             d="m 168.9308,231.3196 -3.3609,-5.8056 6.661,0.7946 z"
             style="fill:#007cbb;fill-opacity:1;fill-rule:nonzero;stroke:none"
             id="path278" />
        </g>
      </g>
    </g>
  </g>
</svg>
